# xmcd
#
# Track frame offsets:
#	150
#	10680
#	17421
#	27662
#	38629
#	48793
#	59036
#	71470
#	83013
#	93359
#
# Disc length: 1401 seconds
#
# Revision: 0
# Processed by: cddbd v1.5.2PL0 Copyright (c) Steve Scherf et al.
# Submitted via: dBpowerAMP V4.0
#
DISCID=7005770a
DTITLE=Waylon Jennings and Willie Nelson - Back to Back
DYEAR=2002
DGENRE=Country
TTITLE0=Track01 - Dream Baby (Waylon)
TTITLE1=Track02 - It's So Easy (Waylon)
TTITLE2=Track03 - White Lightnin' (Waylon)
TTITLE3=Track04 - Big Mamou (Waylon)
TTITLE4=Track05 - Sally Was A Good Ol' Girl (Waylon)
TTITLE5=Track06 - Broken Promises (Willie)
TTITLE6=Track07 - Country Willie (Willie)
TTITLE7=Track08 - Is There Something On Your Mind (Willie) 
TTITLE8=Track09 - Touch Me (Willie)
TTITLE9=Track10 - Nightlife (Willie)
EXTD=K-tel Entertainment (2002)
EXTT0=
EXTT1=
EXTT2=
EXTT3=
EXTT4=
EXTT5=
EXTT6=
EXTT7=
EXTT8=
EXTT9=
PLAYORDER=
